<svg width="25" height="24" viewBox="0 0 25 24" fill="none" xmlns="http://www.w3.org/2000/svg">
<path d="M2.7439 10V14C2.7439 16 3.7439 17 5.7439 17H7.1739C7.5439 17 7.9139 17.11 8.2339 17.3L11.1539 19.13C13.6739 20.71 15.7439 19.56 15.7439 16.59V7.41003C15.7439 4.43003 13.6739 3.29003 11.1539 4.87003L8.2339 6.70003C7.9139 6.89003 7.5439 7.00003 7.1739 7.00003H5.7439C3.7439 7.00003 2.7439 8.00003 2.7439 10Z" stroke="#292D32" stroke-width="1.5"/>
<path d="M18.7439 8C20.5239 10.37 20.5239 13.63 18.7439 16" stroke="#292D32" stroke-width="1.5" stroke-linecap="round" stroke-linejoin="round"/>
<path d="M20.574 5.5C23.464 9.35 23.464 14.65 20.574 18.5" stroke="#292D32" stroke-width="1.5" stroke-linecap="round" stroke-linejoin="round"/>
</svg>
