<svg width="26" height="26" viewBox="0 0 26 26" fill="none" xmlns="http://www.w3.org/2000/svg">
<path fill-rule="evenodd" clip-rule="evenodd" d="M25.7439 9.48273V19.7088C25.7439 22.9375 23.1077 25.5587 19.8605 25.5587H5.88333C2.63622 25.5587 0 22.9375 0 19.7088V9.48273C0 6.2541 2.63622 3.63281 5.88333 3.63281H19.8605C23.1077 3.63281 25.7439 6.2541 25.7439 9.48273ZM23.5623 9.48273C23.5623 7.45129 21.9036 5.80201 19.8605 5.80201H5.88333C3.84029 5.80201 2.18159 7.45129 2.18159 9.48273V19.7088C2.18159 21.7402 3.84029 23.3895 5.88333 23.3895H19.8605C21.9036 23.3895 23.5623 21.7402 23.5623 19.7088V9.48273Z" fill="#14397F"/>
<path d="M7.58698 14.4388C8.6932 14.4388 9.58996 13.5471 9.58996 12.4472C9.58996 11.3472 8.6932 10.4556 7.58698 10.4556C6.48076 10.4556 5.58398 11.3472 5.58398 12.4472C5.58398 13.5471 6.48076 14.4388 7.58698 14.4388Z" fill="#14397F"/>
<path d="M18.3958 14.4388C19.502 14.4388 20.3988 13.5471 20.3988 12.4472C20.3988 11.3472 19.502 10.4556 18.3958 10.4556C17.2896 10.4556 16.3928 11.3472 16.3928 12.4472C16.3928 13.5471 17.2896 14.4388 18.3958 14.4388Z" fill="#14397F"/>
<path fill-rule="evenodd" clip-rule="evenodd" d="M9.70949 16.4055H11.3504C11.3504 17.3066 12.0851 18.0371 12.9913 18.0371C13.8976 18.0371 14.6323 17.3066 14.6323 16.4055H16.2732C16.2732 18.2077 14.8038 19.6687 12.9913 19.6687C11.1788 19.6687 9.70949 18.2077 9.70949 16.4055Z" fill="#14397F"/>
<path d="M14.5178 0.685303H11.2266V4.71743H14.5178V0.685303Z" fill="#14397F"/>
<path d="M17.2696 0.441162H8.47461V2.70119H17.2696V0.441162Z" fill="#14397F"/>
</svg>
